HIERARCHY
ROOT root
{
	OFFSET 0.00 0.00 0.00
	CHANNELS 6 Xposition Yposition Zposition Zrotation Xrotation Yrotation
	JOINT lowerback
	{
		OFFSET 0 0 0
		CHANNELS 6 Xposition Yposition Zposition Zrotation Xrotation Yrotation
		JOINT upperback
		{
			OFFSET -0.214371 12.3768 -1.12219
			CHANNELS 6 Xposition Yposition Zposition Zrotation Xrotation Yrotation
			JOINT thorax
			{
				OFFSET -0.00137213 12.3873 0.296195
				CHANNELS 6 Xposition Yposition Zposition Zrotation Xrotation Yrotation
				JOINT lowerneck
				{
					OFFSET 0.0883157 12.5016 0.82912
					CHANNELS 6 Xposition Yposition Zposition Zrotation Xrotation Yrotation
					JOINT upperneck
					{
						OFFSET -1 10.1794 0.943522
						CHANNELS 6 Xposition Yposition Zposition Zrotation Xrotation Yrotation
						JOINT head
						{
							OFFSET 0.667525 10.2797 -1.57149
							CHANNELS 6 Xposition Yposition Zposition Zrotation Xrotation Yrotation
							End Site
							{
								OFFSET 0 0 0
							}
						}
					}
				}
				JOINT lclavicle
				{
					OFFSET 0.0883157 12.5016 0.82912
					CHANNELS 6 Xposition Yposition Zposition Zrotation Xrotation Yrotation
					JOINT lhumerus
					{
						OFFSET 20.61 4.45006 1.43784
						CHANNELS 6 Xposition Yposition Zposition Zrotation Xrotation Yrotation
						JOINT lradius
						{
							OFFSET 0 -30.3438 0
							CHANNELS 6 Xposition Yposition Zposition Zrotation Xrotation Yrotation
							JOINT lwrist
							{
								OFFSET 0 -18.964 0
								CHANNELS 6 Xposition Yposition Zposition Zrotation Xrotation Yrotation
								JOINT lhand
								{
									OFFSET 0 -9.48199 0
									CHANNELS 6 Xposition Yposition Zposition Zrotation Xrotation Yrotation
									JOINT lfingers
									{
										OFFSET 0 -3.17138 0
										CHANNELS 6 Xposition Yposition Zposition Zrotation Xrotation Yrotation
										End Site
										{
											OFFSET 0 -2.55685 0
										}
									}
								}
								JOINT lthumb
								{
									OFFSET 0 -9.48199 0
									CHANNELS 6 Xposition Yposition Zposition Zrotation Xrotation Yrotation
									End Site
									{
										OFFSET 0 -3.67114 0
									}
								}
							}
						}
					}
				}
				JOINT rclavicle
				{
					OFFSET 0.0883157 12.5016 0.82912
					CHANNELS 6 Xposition Yposition Zposition Zrotation Xrotation Yrotation
					JOINT rhumerus
					{
						OFFSET -20.61 4.45 1.44
						CHANNELS 6 Xposition Yposition Zposition Zrotation Xrotation Yrotation
						JOINT rradius
						{
							OFFSET 0 -29.5102 0
							CHANNELS 6 Xposition Yposition Zposition Zrotation Xrotation Yrotation
							JOINT rwrist
							{
								OFFSET 0 -19.2342 0
								CHANNELS 6 Xposition Yposition Zposition Zrotation Xrotation Yrotation
								JOINT rhand
								{
									OFFSET 0 -9.61712 0
									CHANNELS 6 Xposition Yposition Zposition Zrotation Xrotation Yrotation
									JOINT rfingers
									{
										OFFSET 0 -3.29215 0
										CHANNELS 6 Xposition Yposition Zposition Zrotation Xrotation Yrotation
										End Site
										{
											OFFSET 0 -2.557 0
										}
									}
								}
								JOINT rthumb
								{
									OFFSET 0 -9.61712 0
									CHANNELS 6 Xposition Yposition Zposition Zrotation Xrotation Yrotation
									End Site
									{
										OFFSET 0 -3.671 0
									}
								}
							}
						}
					}
				}
			}
		}
	}
	JOINT rfemur
	{
		OFFSET -8.46272 -9.62775 4.76248
		CHANNELS 6 Xposition Yposition Zposition Zrotation Xrotation Yrotation
		JOINT rtibia
		{
			OFFSET 1.00552e-005 -38.0331 0
			CHANNELS 6 Xposition Yposition Zposition Zrotation Xrotation Yrotation
			JOINT rfoot
			{
				OFFSET 1.14428e-005 -43.2815 0
				CHANNELS 6 Xposition Yposition Zposition Zrotation Xrotation Yrotation
				JOINT rtoes
				{
					OFFSET 0 -14.1868 -3.08763
					CHANNELS 6 Xposition Yposition Zposition Zrotation Xrotation Yrotation
					End Site
					{
						OFFSET 0 -7.27332 0
					}
				}
			}
		}
	}
	JOINT lfemur
	{
		OFFSET 9.10607 -9.62778 4.76249
		CHANNELS 6 Xposition Yposition Zposition Zrotation Xrotation Yrotation
		JOINT ltibia
		{
			OFFSET -1.01399e-005 -38.3535 0
			CHANNELS 6 Xposition Yposition Zposition Zrotation Xrotation Yrotation
			JOINT lfoot
			{
				OFFSET -1.12937e-005 -42.7176 0
				CHANNELS 6 Xposition Yposition Zposition Zrotation Xrotation Yrotation
				JOINT ltoes
				{
					OFFSET 0 -13.9965 -2.83857
					CHANNELS 6 Xposition Yposition Zposition Zrotation Xrotation Yrotation
					End Site
					{
						OFFSET 0 -7.16348 0
					}
				}
			}
		}
	}
}
MOTION
Frames: 7
Frame Time: 0.00833333
-1.46638	96.7192	8.90443	-2.67601	0.0201286	1.71764	0 0 0 5.83849	-2.10069	0.402032	-0.214371 12.3768 -1.12219 -0.863356	2.45202	0.300017	-0.00137213 12.3873 0.296195 -4.15782	3.75888	0.306414	0.0883157 12.5016 0.82912 -6.03704	-11.0824	-4.5866	-1 10.1794 0.943522 13.3091	12.2918	-7.64632	0.667525 10.2797 -1.57149 4.22712	6.22254	-3.24099	0.0883157 12.5016 0.82912 -15	0	-0	20.61 4.45006 1.43784 16.2441	-2.60043	-169.204	0 -30.3438 0 -0	21.4717	-0	0 -18.964 0 1.30411e-014	-3.59738e-015	-120.843	0 -9.48199 0 1.22245	4.37968	-2.58917e-014	0 -3.17138 0 -0	7.12502	-0	0 -9.48199 0 25	15	-1.36605e-015	0.0883157 12.5016 0.82912 15	0	-0	-20.61 4.45 1.44 -12.3792	-8.72891	-173.75	0 -29.5102 0 -0	25.6693	-0	0 -19.2342 0 8.48027e-016	-3.34389e-015	118.461	0 -9.61712 0 1.22	4.38	-0	0 -3.29215 0 -0	7.12502	-0	0 -9.61712 0 25	15	-7.97034e-015	-8.46272 -9.62775 4.76248 9.11564	-6.39474	-6.67101	1.00552e-005 -38.0331 0 -0	28.3105	-0	1.14428e-005 -43.2815 0 -88.2724	-84.3913	-88.2809	0 -14.1868 -3.08763 -0	-17.2638	-0	9.10607 -9.62778 4.76249 5.21661	-26.7154	1.35999	-1.01399e-005 -38.3535 0 -0	45.2904	-0	-1.12937e-005 -42.7176 0 36.9762	-74.4844	38.0033	0 -13.9965 -2.83857 -0	-42.9973	-0
-1.49818	96.7445	9.2286	-2.72405	0.0013535	1.77346	0 0 0 5.89185	-2.06062	0.415584	-0.214371 12.3768 -1.12219 -0.861676	2.45785	0.317698	-0.00137213 12.3873 0.296195 -4.18379	3.74499	0.316085	0.0883157 12.5016 0.82912 -6.06003	-11.0512	-4.60229	-1 10.1794 0.943522 13.3128	12.2543	-7.6591	0.667525 10.2797 -1.57149 4.23186	6.20762	-3.2494	0.0883157 12.5016 0.82912 -15	0	-0	20.61 4.45006 1.43784 16.1947	-2.4711	-169.098	0 -30.3438 0 -0	21.2893	-0	0 -18.964 0 1.30338e-014	-3.60957e-015	-120.959	0 -9.48199 0 1.22245	4.37968	-2.58917e-014	0 -3.17138 0 -0	7.12502	-0	0 -9.48199 0 25	15	-1.36605e-015	0.0883157 12.5016 0.82912 15	0	-0	-20.61 4.45 1.44 -12.3642	-8.78586	-173.314	0 -29.5102 0 -0	25.9452	-0	0 -19.2342 0 8.28755e-016	-3.30809e-015	118.129	0 -9.61712 0 1.22	4.38	-0	0 -3.29215 0 -0	7.12502	-0	0 -9.61712 0 25	15	-7.97034e-015	-8.46272 -9.62775 4.76248 9.20367	-5.98505	-6.74123	1.00552e-005 -38.0331 0 -0	27.9673	-0	1.14428e-005 -43.2815 0 -87.7446	-84.414	-87.7555	0 -14.1868 -3.08763 -0	-17.4335	-0	9.10607 -9.62778 4.76249 5.13306	-27.05	1.44308	-1.01399e-005 -38.3535 0 -0	44.2684	-0	-1.12937e-005 -42.7176 0 35.9556	-74.2676	37.0013	0 -13.9965 -2.83857 -0	-42.3708	-0
-1.52682	96.7712	9.55386	-2.76345	-0.015477	1.83186	0 0 0 5.93682	-2.02225	0.427763	-0.214371 12.3768 -1.12219 -0.859785	2.46091	0.334005	-0.00137213 12.3873 0.296195 -4.20516	3.72893	0.324759	0.0883157 12.5016 0.82912 -6.09012	-11.0133	-4.61756	-1 10.1794 0.943522 13.32	12.2156	-7.67084	0.667525 10.2797 -1.57149 4.23935	6.19146	-3.25771	0.0883157 12.5016 0.82912 -15	0	-0	20.61 4.45006 1.43784 16.1418	-2.34625	-168.988	0 -30.3438 0 -0	21.1053	-0	0 -18.964 0 1.30263e-014	-3.62206e-015	-121.078	0 -9.48199 0 1.22245	4.37968	-2.58917e-014	0 -3.17138 0 -0	7.12502	-0	0 -9.48199 0 25	15	-1.36605e-015	0.0883157 12.5016 0.82912 15	0	-0	-20.61 4.45 1.44 -12.354	-8.83797	-172.875	0 -29.5102 0 -0	26.2123	-0	0 -19.2342 0 8.1129e-016	-3.27521e-015	117.825	0 -9.61712 0 1.22	4.38	-0	0 -3.29215 0 -0	7.12502	-0	0 -9.61712 0 25	15	-7.97034e-015	-8.46272 -9.62775 4.76248 9.28842	-5.58013	-6.81576	1.00552e-005 -38.0331 0 -0	27.6254	-0	1.14428e-005 -43.2815 0 -87.2141	-84.438	-87.2274	0 -14.1868 -3.08763 -0	-17.6004	-0	9.10607 -9.62778 4.76249 5.0463	-27.3601	1.54837	-1.01399e-005 -38.3535 0 -0	43.2235	-0	-1.12937e-005 -42.7176 0 34.8445	-74.0206	35.9102	0 -13.9965 -2.83857 -0	-41.8496	-0
-1.55317	96.7998	9.8822	-2.80268	-0.0296214	1.88741	0 0 0 5.98269	-1.99048	0.442695	-0.214371 12.3768 -1.12219 -0.856974	2.47048	0.353214	-0.00137213 12.3873 0.296195 -4.22763	3.72382	0.335322	0.0883157 12.5016 0.82912 -6.11734	-10.9934	-4.63515	-1 10.1794 0.943522 13.3275	12.1784	-7.68553	0.667525 10.2797 -1.57149 4.24555	6.17901	-3.26645	0.0883157 12.5016 0.82912 -15	0	-0	20.61 4.45006 1.43784 16.0845	-2.22708	-168.872	0 -30.3438 0 -0	20.9193	-0	0 -18.964 0 1.30185e-014	-3.63495e-015	-121.201	0 -9.48199 0 1.22245	4.37968	-2.58917e-014	0 -3.17138 0 -0	7.12502	-0	0 -9.48199 0 25	15	-1.36605e-015	0.0883157 12.5016 0.82912 15	0	-0	-20.61 4.45 1.44 -12.3514	-8.88546	-172.426	0 -29.5102 0 -0	26.4733	-0	0 -19.2342 0 7.95698e-016	-3.24549e-015	117.551	0 -9.61712 0 1.22	4.38	-0	0 -3.29215 0 -0	7.12502	-0	0 -9.61712 0 25	15	-7.97034e-015	-8.46272 -9.62775 4.76248 9.36607	-5.18075	-6.89853	1.00552e-005 -38.0331 0 -0	27.2869	-0	1.14428e-005 -43.2815 0 -86.6838	-84.4694	-86.6994	0 -14.1868 -3.08763 -0	-17.7624	-0	9.10607 -9.62778 4.76249 4.95413	-27.6441	1.67642	-1.01399e-005 -38.3535 0 -0	42.1539	-0	-1.12937e-005 -42.7176 0 33.6172	-73.7086	34.7081	0 -13.9965 -2.83857 -0	-41.4565	-0
-1.57757	96.8285	10.2116	-2.84406	-0.0407231	1.94172	0 0 0 6.02943	-1.96144	0.458567	-0.214371 12.3768 -1.12219 -0.852429	2.47823	0.373526	-0.00137213 12.3873 0.296195 -4.24781	3.71848	0.346392	0.0883157 12.5016 0.82912 -6.1421	-10.973	-4.65224	-1 10.1794 0.943522 13.3319	12.1428	-7.69968	0.667525 10.2797 -1.57149 4.25041	6.16673	-3.27499	0.0883157 12.5016 0.82912 -15	0	-0	20.61 4.45006 1.43784 16.022	-2.1119	-168.751	0 -30.3438 0 -0	20.7295	-0	0 -18.964 0 1.30105e-014	-3.64814e-015	-121.327	0 -9.48199 0 1.22245	4.37968	-2.58917e-014	0 -3.17138 0 -0	7.12502	-0	0 -9.48199 0 25	15	-1.36605e-015	0.0883157 12.5016 0.82912 15	0	-0	-20.61 4.45 1.44 -12.356	-8.9255	-171.965	0 -29.5102 0 -0	26.7314	-0	0 -19.2342 0 7.81765e-016	-3.21865e-015	117.304	0 -9.61712 0 1.22	4.38	-0	0 -3.29215 0 -0	7.12502	-0	0 -9.61712 0 25	15	-7.97034e-015	-8.46272 -9.62775 4.76248 9.43867	-4.78257	-6.98827	1.00552e-005 -38.0331 0 -0	26.9449	-0	1.14428e-005 -43.2815 0 -86.1029	-84.5071	-86.1209	0 -14.1868 -3.08763 -0	-17.9264	-0	9.10607 -9.62778 4.76249 4.85769	-27.9027	1.82571	-1.01399e-005 -38.3535 0 -0	41.0605	-0	-1.12937e-005 -42.7176 0 32.298	-73.3327	33.4187	0 -13.9965 -2.83857 -0	-41.149	-0
-1.59945	96.8563	10.5431	-2.89355	-0.0493967	1.9973	0 0 0 6.0851	-1.93789	0.475139	-0.214371 12.3768 -1.12219 -0.844948	2.48384	0.394158	-0.00137213 12.3873 0.296195 -4.26994	3.71402	0.357832	0.0883157 12.5016 0.82912 -6.16661	-10.9491	-4.66917	-1 10.1794 0.943522 13.3375	12.1077	-7.71429	0.667525 10.2797 -1.57149 4.25564	6.15414	-3.28386	0.0883157 12.5016 0.82912 -15	0	-0	20.61 4.45006 1.43784 15.9573	-1.99921	-168.628	0 -30.3438 0 -0	20.5379	-0	0 -18.964 0 1.30021e-014	-3.66194e-015	-121.459	0 -9.48199 0 1.22245	4.37968	-2.58917e-014	0 -3.17138 0 -0	7.12502	-0	0 -9.48199 0 25	15	-1.36605e-015	0.0883157 12.5016 0.82912 15	0	-0	-20.61 4.45 1.44 -12.3624	-8.9596	-171.508	0 -29.5102 0 -0	26.9781	-0	0 -19.2342 0 7.69118e-016	-3.19403e-015	117.078	0 -9.61712 0 1.22	4.38	-0	0 -3.29215 0 -0	7.12502	-0	0 -9.61712 0 25	15	-7.97034e-015	-8.46272 -9.62775 4.76248 9.51361	-4.38715	-7.07709	1.00552e-005 -38.0331 0 -0	26.6001	-0	1.14428e-005 -43.2815 0 -85.4966	-84.5389	-85.5171	0 -14.1868 -3.08763 -0	-18.0921	-0	9.10607 -9.62778 4.76249 4.7619	-28.1387	1.99649	-1.01399e-005 -38.3535 0 -0	39.9465	-0	-1.12937e-005 -42.7176 0 30.9695	-72.963	32.1157	0 -13.9965 -2.83857 -0	-40.9076	-0
-1.61882	96.882	10.8786	-2.94929	-0.0505934	2.05292	0 0 0 6.14722	-1.92769	0.493491	-0.214371 12.3768 -1.12219 -0.836698	2.48706	0.41623	-0.00137213 12.3873 0.296195 -4.29477	3.71583	0.370377	0.0883157 12.5016 0.82912 -6.18538	-10.9256	-4.68587	-1 10.1794 0.943522 13.3412	12.0749	-7.72969	0.667525 10.2797 -1.57149 4.25917	6.14209	-3.29298	0.0883157 12.5016 0.82912 -15	0	-0	20.61 4.45006 1.43784 15.8929	-1.88761	-168.504	0 -30.3438 0 -0	20.3464	-0	0 -18.964 0 1.29932e-014	-3.67634e-015	-121.597	0 -9.48199 0 1.22245	4.37968	-2.58917e-014	0 -3.17138 0 -0	7.12502	-0	0 -9.48199 0 25	15	-1.36605e-015	0.0883157 12.5016 0.82912 15	0	-0	-20.61 4.45 1.44 -12.3652	-8.98944	-171.076	0 -29.5102 0 -0	27.205	-0	0 -19.2342 0 7.57453e-016	-3.17111e-015	116.868	0 -9.61712 0 1.22	4.38	-0	0 -3.29215 0 -0	7.12502	-0	0 -9.61712 0 25	15	-7.97034e-015	-8.46272 -9.62775 4.76248 9.59799	-3.996	-7.15709	1.00552e-005 -38.0331 0 -0	26.2529	-0	1.14428e-005 -43.2815 0 -84.8987	-84.5542	-84.9218	0 -14.1868 -3.08763 -0	-18.2588	-0	9.10607 -9.62778 4.76249 4.67166	-28.3551	2.18898	-1.01399e-005 -38.3535 0 -0	38.8151	-0	-1.12937e-005 -42.7176 0 29.686	-72.6716	30.8443	0 -13.9965 -2.83857 -0	-40.7129	-0
